<?xml version="1.0" encoding="utf-8"?>
<!-- Generator: Adobe Illustrator 21.0.2, SVG Export Plug-In . SVG Version: 6.00 Build 0)  -->
<svg version="1.1" id="Layer_1" xmlns="http://www.w3.org/2000/svg" xmlns:xlink="http://www.w3.org/1999/xlink" x="0px" y="0px"
	 viewBox="0 0 329.1 329.4" style="enable-background:new 0 0 329.1 329.4;" xml:space="preserve">
<style type="text/css">
	.st0{fill:#FFFFFF;}
</style>
<g>
	<path class="st0" d="M309.2,0c1.4,0.4,2.9,0.7,4.3,1.1c14.9,4.2,20.5,22.1,10.7,34c-1,1.2-2.2,2.4-3.3,3.5
		c-41.1,41.1-82.3,82.3-123.4,123.4c-0.9,0.9-2,1.6-3.5,2.7c1.6,1.4,2.7,2.1,3.6,3c41.4,41.4,82.7,82.7,124.1,124.1
		c5.8,5.8,8.6,12.5,6.9,20.6c-3.3,15.4-21.3,22.1-33.8,12.4c-1.4-1-2.6-2.3-3.8-3.5c-41.1-41.1-82.3-82.3-123.4-123.4
		c-0.9-0.9-1.6-2-2.6-3.3c-1.3,1.3-2.3,2.1-3.1,3c-41.4,41.4-82.9,82.8-124.3,124.3c-6.4,6.5-13.9,8.7-22.6,6.3
		c-6.9-2-11.5-6.8-13.9-13.6c-0.3-1-0.7-2-1.1-3c0-2.4,0-4.7,0-7.1c1.5-6.4,5.5-11.1,10.1-15.6c40.6-40.4,81.1-81,121.6-121.5
		c0.9-0.9,2.1-1.4,3.8-2.6c-1.9-1.5-3-2.2-3.9-3.1C91.1,121.5,50.7,81,10.2,40.7C5.6,36.1,1.5,31.5,0,25.1c0-2.4,0-4.7,0-7.1
		C1.7,12,4.5,6.6,10.2,3.6c3-1.6,6.5-2.4,9.8-3.6c0.9,0,1.7,0,2.6,0c7.8,1,13.2,5.7,18.6,11.1c40.2,40.4,80.6,80.7,120.9,121
		c0.8,0.8,1.7,1.6,3.3,3.1c0.8-1.2,1.4-2.4,2.3-3.3c40.2-40.3,80.5-80.4,120.6-120.8c5.3-5.3,10.7-10.1,18.6-11.1
		C307.5,0,308.4,0,309.2,0z"/>
</g>
</svg>
