<?xml version="1.0" encoding="utf-8"?>
<!-- Generator: Adobe Illustrator 21.0.2, SVG Export Plug-In . SVG Version: 6.00 Build 0)  -->
<svg version="1.1" id="Layer_1" xmlns="http://www.w3.org/2000/svg" xmlns:xlink="http://www.w3.org/1999/xlink" x="0px" y="0px"
	 viewBox="0 0 612 792" style="enable-background:new 0 0 612 792;" xml:space="preserve">
<style type="text/css">
	.st0{fill:#450A62;}
</style>
<g>
	<path class="st0" d="M323,653c-10.7,0-21.3,0-32,0c-1.1-0.3-2.2-0.7-3.3-0.8c-44.1-3.3-84.8-16.8-121.4-41.5
		C105.7,570,68.4,513.5,55,441.6c-1.8-9.5-2.7-19.1-4-28.6c0-10.7,0-21.3,0-32c0.3-1.4,0.6-2.9,0.9-4.3c1.7-11.7,2.9-23.5,5.2-35
		C77.6,242.4,162.4,161.3,262.4,145c9.5-1.5,19.1-2.7,28.6-4c10.7,0,21.3,0,32,0c1.3,0.3,2.6,0.6,3.9,0.8c16,2.8,32.6,3.8,48,8.5
		c101.1,31.1,162.7,98.8,184.2,202.5c1.9,9.2,2.7,18.7,3.9,28.1c0,10.7,0,21.3,0,32c-0.3,1.3-0.7,2.6-0.8,3.9
		c-4.5,56.1-25.1,105.6-62,147.9c-39.7,45.5-89.5,73.7-149.1,84.3C341.8,650.8,332.4,651.7,323,653z M523,397.2
		c0.2-119.1-96.1-215.8-215.5-216.2C188.3,180.6,91.2,277.3,91,396.7C90.8,515.9,187.2,612.6,306.5,613
		C425.7,613.4,522.8,516.7,523,397.2z"/>
	<path class="st0" d="M286.8,495c0-39.3,0-77.9,0-117.3c-6.3,0-12.3,0.1-18.4,0c-11.6-0.3-20.1-8.2-20.6-18.9
		c-0.5-11.6,7.7-20.7,19.3-21c13-0.3,26-0.2,39-0.1c12.7,0.1,20.8,8.4,20.9,21.1c0,36,0,72,0,108c0,9.1,0,18.3,0,28.2
		c6,0,11.7,0,17.5,0c12.8,0,21.6,8.1,21.7,19.8c0.1,11.9-8.7,20.2-21.7,20.2c-25,0-50,0-75,0c-13,0-21.8-8.3-21.7-20.2
		c0.1-11.7,8.9-19.7,21.7-19.7C275.1,495,280.8,495,286.8,495z"/>
	<path class="st0" d="M307.2,239.8c13.9,0.1,24.9,11.3,24.8,25.2c-0.2,13.5-11.4,24.7-25,24.7c-13.7,0-25.1-11.4-25-25.1
		C282.1,250.7,293.3,239.7,307.2,239.8z"/>
</g>
</svg>
